<?xml version="1.0" standalone="no"?>
<!DOCTYPE svg PUBLIC "-//W3C//DTD SVG 20010904//EN"
 "http://www.w3.org/TR/2001/REC-SVG-20010904/DTD/svg10.dtd">
<svg version="1.0" xmlns="http://www.w3.org/2000/svg"
  viewBox="0 0 2732.000000 2138.000000"
 preserveAspectRatio="xMidYMid meet">

<g transform="translate(0.000000,2138.000000) scale(0.100000,-0.100000)"
fill="#000000" stroke="none">
<path d="M21136 21345 c-216 -45 -393 -142 -538 -293 -119 -125 -201 -268
-250 -437 l-23 -80 -3 -1081 -3 -1081 -122 -7 c-1722 -97 -3009 -601 -3857
-1511 -482 -517 -793 -1157 -939 -1930 -166 -876 -78 -1629 269 -2310 507
-996 1489 -1699 3170 -2266 587 -199 994 -314 2165 -614 1833 -470 2446 -664
3080 -975 369 -181 613 -341 809 -530 130 -126 219 -242 285 -370 98 -191 131
-340 131 -592 0 -421 -103 -778 -308 -1068 -81 -116 -296 -334 -414 -421 -198
-147 -461 -289 -723 -392 -1046 -411 -2575 -476 -4167 -176 -992 186 -2145
501 -2773 757 -378 153 -417 164 -605 165 -372 0 -710 -203 -885 -536 -161
-305 -152 -676 25 -977 81 -137 211 -268 350 -350 192 -114 873 -363 1485
-543 915 -270 2059 -521 2735 -602 118 -14 232 -28 252 -31 l38 -6 2 -1121 3
-1122 23 -80 c27 -93 96 -243 142 -310 45 -66 154 -179 222 -231 166 -128 390
-204 603 -204 458 0 850 301 973 746 l27 99 5 1090 5 1090 45 3 c462 27 1059
122 1500 238 1830 484 3012 1568 3343 3064 52 231 87 604 87 916 0 616 -113
1103 -362 1559 -289 529 -683 946 -1258 1330 -234 156 -414 259 -694 396 -768
375 -1604 650 -3256 1069 -1177 298 -1450 371 -1854 495 -832 255 -1369 486
-1811 780 -432 287 -645 570 -721 961 -21 107 -24 394 -5 524 83 578 297 992
671 1296 113 92 341 239 470 304 377 189 876 304 1575 364 1212 104 2732 -50
4529 -459 154 -35 310 -69 346 -74 139 -23 311 -7 455 42 336 115 581 386 661
732 27 116 25 360 -4 467 -92 340 -325 589 -651 698 -122 41 -812 192 -1291
284 -485 93 -1019 176 -1470 230 -118 15 -236 29 -262 32 l-47 6 -4 1106 c-3
1096 -3 1108 -24 1187 -99 370 -367 640 -731 737 -102 26 -328 34 -426 13z"/>
<path d="M7836 19979 c-98 -14 -206 -48 -303 -94 -111 -52 -164 -88 -249 -167
-140 -131 140 520 -3679 -8573 -1929 -4592 -3520 -8385 -3536 -8428 -86 -231
-76 -503 26 -740 96 -221 296 -420 516 -513 153 -65 225 -78 404 -78 177 1
243 14 391 75 195 81 392 261 489 449 10 19 339 798 731 1730 l712 1695 4672
0 4672 0 714 -1698 c392 -934 727 -1724 745 -1755 101 -180 284 -342 474 -421
147 -61 214 -74 390 -75 173 0 244 12 385 70 323 131 556 430 611 784 16 102
6 284 -21 385 -18 68 -6955 16605 -7060 16832 -66 142 -148 242 -269 332 -215
159 -529 232 -815 190z m2084 -8031 c1047 -2493 1905 -4541 1908 -4551 4 -16
-182 -17 -3813 -17 -2232 0 -3815 4 -3813 9 35 96 3804 9091 3809 9091 3 0
862 -2040 1909 -4532z"/>
</g>
</svg>
