<svg width="320" height="320" xmlns="http://www.w3.org/2000/svg">
 <g>
  <path id="svg_1" d="m315.31975,315.31975c-6.253,6.253 -16.37,6.253 -22.63,0l-132.67,-132.7l-132.7,132.7c-6.253,6.253 -16.37,6.253 -22.63,0c-6.253,-6.253 -6.253,-16.37 0,-22.63l132.73,-132.67l-132.71,-132.7c-6.253,-6.253 -6.253,-16.37 0,-22.63c6.253,-6.253 16.37,-6.253 22.63,0l132.68,132.73l132.7,-132.7c6.253,-6.253 16.37,-6.253 22.63,0c6.253,6.253 6.253,16.37 0,22.63l-132.73,132.67l132.7,132.7c6.3,6.2 6.3,16.4 0,22.6z"/>
 </g>
</svg>