<svg width="24" height="24" viewBox="0 0 24 24" fill="none" xmlns="http://www.w3.org/2000/svg">
<rect x="0.5" y="0.5" width="23" height="23" fill="white" fill-opacity="0.2" stroke="#1D1F22"/>
<path d="M8.17406 17V7.816H9.57406L11.3381 12.716C11.4501 13.0333 11.5574 13.3553 11.6601 13.682C11.7721 13.9993 11.8841 14.3167 11.9961 14.634H12.0521C12.1641 14.3167 12.2667 13.9993 12.3601 13.682C12.4627 13.3553 12.5701 13.0333 12.6821 12.716L14.4181 7.816H15.8321V17H14.7401V11.946C14.7401 11.5353 14.7587 11.0827 14.7961 10.588C14.8334 10.0933 14.8661 9.64067 14.8941 9.23H14.8381L14.1101 11.316L12.3741 16.076H11.6041L9.86806 11.316L9.14006 9.23H9.08406C9.11206 9.64067 9.14006 10.0933 9.16806 10.588C9.2054 11.0827 9.22406 11.5353 9.22406 11.946V17H8.17406Z" fill="#1D1F22"/>
</svg>
