<svg width="24" height="24" viewBox="0 0 24 24" fill="none" xmlns="http://www.w3.org/2000/svg">
<rect x="0.5" y="0.5" width="23" height="23" fill="#1D1F22" stroke="#1D1F22"/>
<path d="M12.0687 17.168C11.4247 17.168 10.8274 17.0467 10.2767 16.804C9.72608 16.552 9.25008 16.2207 8.84874 15.81L9.54874 14.998C9.87541 15.3433 10.2581 15.6233 10.6967 15.838C11.1447 16.0433 11.6067 16.146 12.0827 16.146C12.6894 16.146 13.1607 16.0107 13.4967 15.74C13.8327 15.46 14.0007 15.096 14.0007 14.648C14.0007 14.3307 13.9307 14.0787 13.7907 13.892C13.6601 13.7053 13.4781 13.5467 13.2447 13.416C13.0207 13.2853 12.7641 13.1547 12.4747 13.024L11.1587 12.45C10.8694 12.3287 10.5801 12.17 10.2907 11.974C10.0107 11.778 9.77274 11.526 9.57674 11.218C9.39008 10.91 9.29674 10.532 9.29674 10.084C9.29674 9.61733 9.41808 9.202 9.66074 8.838C9.91274 8.46467 10.2581 8.17533 10.6967 7.97C11.1354 7.75533 11.6301 7.648 12.1807 7.648C12.7314 7.648 13.2401 7.75533 13.7067 7.97C14.1734 8.17533 14.5701 8.446 14.8967 8.782L14.2667 9.538C13.9867 9.26733 13.6741 9.05733 13.3287 8.908C12.9927 8.74933 12.6101 8.67 12.1807 8.67C11.6674 8.67 11.2521 8.79133 10.9347 9.034C10.6267 9.27667 10.4727 9.60333 10.4727 10.014C10.4727 10.3033 10.5474 10.546 10.6967 10.742C10.8554 10.9287 11.0514 11.0827 11.2847 11.204C11.5181 11.3253 11.7561 11.4373 11.9987 11.54L13.3007 12.1C13.6554 12.2493 13.9727 12.4313 14.2527 12.646C14.5421 12.8513 14.7707 13.108 14.9387 13.416C15.1067 13.7147 15.1907 14.0927 15.1907 14.55C15.1907 15.0353 15.0647 15.4787 14.8127 15.88C14.5607 16.272 14.2014 16.5847 13.7347 16.818C13.2681 17.0513 12.7127 17.168 12.0687 17.168Z" fill="white"/>
</svg>
