<svg width="24" height="24" viewBox="0 0 24 24" fill="none" xmlns="http://www.w3.org/2000/svg">
<rect x="0.5" y="0.5" width="23" height="23" fill="white" fill-opacity="0.2" stroke="#1D1F22"/>
<path d="M4.97758 17L7.65158 12.254L5.15958 7.816H6.44758L7.69358 10.168C7.81491 10.3733 7.92691 10.5787 8.02958 10.784C8.14158 10.9893 8.26758 11.2273 8.40758 11.498H8.46358C8.59425 11.2273 8.70625 10.9893 8.79958 10.784C8.90225 10.5787 9.00958 10.3733 9.12158 10.168L10.3396 7.816H11.5716L9.06558 12.31L11.7396 17H10.4516L9.10758 14.522C8.98624 14.298 8.86025 14.0693 8.72958 13.836C8.60824 13.5933 8.47291 13.332 8.32358 13.052H8.26758C8.13691 13.332 8.01091 13.5933 7.88958 13.836C7.76824 14.0693 7.65158 14.298 7.53958 14.522L6.20958 17H4.97758ZM15.5619 17.168C14.9179 17.168 14.3206 17.0467 13.7699 16.804C13.2192 16.552 12.7432 16.2207 12.3419 15.81L13.0419 14.998C13.3686 15.3433 13.7512 15.6233 14.1899 15.838C14.6379 16.0433 15.0999 16.146 15.5759 16.146C16.1826 16.146 16.6539 16.0107 16.9899 15.74C17.3259 15.46 17.4939 15.096 17.4939 14.648C17.4939 14.3307 17.4239 14.0787 17.2839 13.892C17.1532 13.7053 16.9712 13.5467 16.7379 13.416C16.5139 13.2853 16.2572 13.1547 15.9679 13.024L14.6519 12.45C14.3626 12.3287 14.0732 12.17 13.7839 11.974C13.5039 11.778 13.2659 11.526 13.0699 11.218C12.8832 10.91 12.7899 10.532 12.7899 10.084C12.7899 9.61733 12.9112 9.202 13.1539 8.838C13.4059 8.46467 13.7512 8.17533 14.1899 7.97C14.6286 7.75533 15.1232 7.648 15.6739 7.648C16.2246 7.648 16.7332 7.75533 17.1999 7.97C17.6666 8.17533 18.0632 8.446 18.3899 8.782L17.7599 9.538C17.4799 9.26733 17.1672 9.05733 16.8219 8.908C16.4859 8.74933 16.1032 8.67 15.6739 8.67C15.1606 8.67 14.7452 8.79133 14.4279 9.034C14.1199 9.27667 13.9659 9.60333 13.9659 10.014C13.9659 10.3033 14.0406 10.546 14.1899 10.742C14.3486 10.9287 14.5446 11.0827 14.7779 11.204C15.0112 11.3253 15.2492 11.4373 15.4919 11.54L16.7939 12.1C17.1486 12.2493 17.4659 12.4313 17.7459 12.646C18.0352 12.8513 18.2639 13.108 18.4319 13.416C18.5999 13.7147 18.6839 14.0927 18.6839 14.55C18.6839 15.0353 18.5579 15.4787 18.3059 15.88C18.0539 16.272 17.6946 16.5847 17.2279 16.818C16.7612 17.0513 16.2059 17.168 15.5619 17.168Z" fill="#1D1F22"/>
</svg>
